<svg width="14" height="19" viewBox="0 0 14 19" fill="none" xmlns="http://www.w3.org/2000/svg">
<path d="M7.37991 18.25L6.98213 17.8C6.73352 17.55 0.916016 10.65 0.916016 6.5C0.916016 2.9 3.7999 0 7.37991 0C10.9599 0 13.8438 2.9 13.8438 6.5C13.8438 10.65 8.02629 17.55 7.77768 17.85L7.37991 18.25ZM7.37991 1C4.34685 1 1.91046 3.45 1.91046 6.5C1.91046 9.7 6.08713 15.1 7.37991 16.7C8.67268 15.1 12.8493 9.7 12.8493 6.5C12.8493 3.45 10.413 1 7.37991 1Z" fill="black"/>
<path d="M7.38064 9C5.98842 9 4.89453 7.9 4.89453 6.5C4.89453 5.1 5.98842 4 7.38064 4C8.77286 4 9.86675 5.1 9.86675 6.5C9.86675 7.9 8.77286 9 7.38064 9ZM7.38064 5C6.53536 5 5.88898 5.65 5.88898 6.5C5.88898 7.35 6.53536 8 7.38064 8C8.22592 8 8.87231 7.35 8.87231 6.5C8.87231 5.65 8.22592 5 7.38064 5Z" fill="black"/>
</svg>
